<svg width="1080" height="1080" viewBox="0 0 1080 1080" fill="none" xmlns="http://www.w3.org/2000/svg">
<path d="M287.322 597.95V772.531C287.322 801.917 263.886 825.353 234.499 825.353C203.74 825.353 178.839 801.917 178.839 772.531L180.304 599.415L14.6032 336.858C-1.60064 311.865 5.81467 278.176 30.7155 261.972C57.0811 247.325 89.3972 254.648 105.51 279.641L233.035 482.052L274.139 417.511C290.252 392.61 323.941 385.286 348.933 399.934C373.834 416.046 381.158 449.827 365.046 476.193L287.322 597.95Z" fill="#316BFF"/>
<path d="M460.345 307.471C460.345 338.323 436.909 363.223 407.523 363.223C376.763 363.223 353.327 338.323 353.327 307.471C353.327 278.176 376.763 254.648 407.523 254.648C436.909 254.648 460.345 278.176 460.345 307.471Z" fill="#1A2447"/>
<path d="M762.36 709.454C793.212 727.031 825.436 735.819 864.985 740.305C904.625 744.699 920.737 763.741 920.737 788.642C920.737 816.564 903.16 840 851.802 840C810.789 840 769.684 831.211 727.206 813.634C624.582 765.206 552.717 661.025 552.717 540.732C552.717 373.476 686.101 240 851.802 240C907.554 240 983.813 250.253 1045.42 300.146C1068.86 319.188 1070.32 351.504 1052.75 376.405C1038.01 398.468 1008.71 399.933 977.954 383.821C945.638 364.687 903.16 348.575 851.802 348.575C746.248 348.575 661.201 433.622 661.201 540.732C661.201 614.062 700.841 675.673 762.36 709.454Z" fill="#316BFF"/>
<path d="M964.771 731.424C964.771 702.129 989.672 678.693 1018.97 678.693C1048.35 678.693 1073.25 702.129 1073.25 731.424C1073.25 762.276 1048.35 787.177 1018.97 787.177C989.672 787.177 964.771 762.276 964.771 731.424Z" fill="#1A2447"/>
</svg>
