<svg width="265" height="75" viewBox="0 0 265 75" fill="none" xmlns="http://www.w3.org/2000/svg">
<path d="M21.8284 42.8186V57.8495C21.8284 60.3796 20.0099 62.3974 17.7298 62.3974C15.343 62.3974 13.4109 60.3796 13.4109 57.8495L13.5246 42.9447L0.667539 20.3392C-0.58975 18.1874 -0.0143803 15.2868 1.91773 13.8917C3.96349 12.6306 6.47097 13.2612 7.72116 15.413L17.6161 32.84L20.8055 27.2832C22.0557 25.1393 24.6697 24.5088 26.6089 25.7699C28.541 27.1571 29.1093 30.0655 27.8591 32.3355L21.8284 42.8186Z" fill="white"/>
<path d="M35.2538 17.8091C35.2538 20.4653 33.4353 22.6092 31.1551 22.6092C28.7684 22.6092 26.95 20.4653 26.95 17.8091C26.95 15.2869 28.7684 13.2612 31.1551 13.2612C33.4353 13.2612 35.2538 15.2869 35.2538 17.8091Z" fill="#316BFF"/>
<path d="M58.6875 52.4188C61.0814 53.9321 63.5817 54.6888 66.6504 55.075C69.7261 55.4533 70.9763 57.0928 70.9763 59.2367C70.9763 61.6407 69.6125 63.6585 65.6275 63.6585C62.4452 63.6585 59.2558 62.9018 55.9599 61.3884C47.997 57.2189 42.4209 48.2492 42.4209 37.8923C42.4209 23.4919 52.7705 12 65.6275 12C69.9534 12 75.8705 12.8828 80.6511 17.1785C82.4695 18.8179 82.5832 21.6002 81.2193 23.7441C80.0757 25.6437 77.8026 25.7698 75.4159 24.3826C72.9084 22.7352 69.6125 21.348 65.6275 21.348C57.4374 21.348 50.8384 28.6704 50.8384 37.8923C50.8384 44.2057 53.9141 49.5103 58.6875 52.4188Z" fill="white"/>
<path d="M74.3931 54.3104C74.3931 51.7881 76.3252 49.7704 78.5982 49.7704C80.8784 49.7704 82.8105 51.7881 82.8105 54.3104C82.8105 56.9666 80.8784 59.1105 78.5982 59.1105C76.3252 59.1105 74.3931 56.9666 74.3931 54.3104Z" fill="#316BFF"/>
<path d="M104.767 22.6092V57.8495C104.767 60.3796 102.835 62.3974 100.448 62.3974C98.1679 62.3974 96.3495 60.3796 96.3495 57.8495V17.8091C96.3495 15.2869 98.1679 13.2612 100.448 13.2612H121.723C123.996 13.2612 125.814 15.2869 125.814 17.8091C125.814 20.4653 123.996 22.6092 121.723 22.6092H104.767Z" fill="white"/>
<path d="M113.071 34.3534C115.465 34.3534 117.283 36.379 117.283 39.0274C117.283 41.5575 115.465 43.7014 113.071 43.7014C110.798 43.7014 108.866 41.5575 108.866 39.0274C108.866 36.379 110.798 34.3534 113.071 34.3534Z" fill="#316BFF"/>
<path d="M139.467 62.3974C137.08 62.3974 135.262 60.3796 135.262 57.8495V17.8091C135.262 15.2869 137.08 13.2612 139.467 13.2612H148.119C150.392 13.2612 152.324 15.2869 152.324 17.8091C152.324 20.4653 150.392 22.6092 148.119 22.6092H143.679V33.3445H158.355C160.628 33.3445 162.567 35.244 162.567 37.8924C162.567 40.4225 160.628 42.3142 158.355 42.3142H143.679V53.0494H160.976C163.249 53.0494 165.067 55.2012 165.067 57.8495C165.067 60.3796 163.249 62.3974 160.976 62.3974H139.467Z" fill="white"/>
<path d="M160.741 22.6092C158.355 22.6092 156.536 20.4653 156.536 17.8091C156.536 15.2869 158.355 13.2612 160.741 13.2612C163.021 13.2612 164.954 15.2869 164.954 17.8091C164.954 20.4653 163.021 22.6092 160.741 22.6092Z" fill="#316BFF"/>
<path d="M185.66 52.5449C185.66 55.2011 183.841 57.2189 181.455 57.2189C179.175 57.2189 177.242 55.2011 177.242 52.5449C177.242 49.8965 179.175 47.8708 181.455 47.8708C183.841 47.8708 185.66 49.8965 185.66 52.5449Z" fill="#316BFF"/>
<path d="M196.13 63.6585C192.827 63.6585 188.395 62.2712 188.395 58.7322C188.395 55.8317 190.099 54.1843 192.259 54.3104C194.418 54.4365 196.698 55.3272 198.972 54.0582C200.79 53.1754 202.047 51.4099 202.047 49.0059C202.047 45.9792 199.085 44.0796 192.713 41.4313C186.796 39.1534 178.152 36.2528 178.038 26.6526C178.038 22.9875 179.288 19.5825 181.682 16.9262C183.728 14.6562 187.365 12 193.964 12C201.365 12 206.252 16.2957 207.957 18.944C209.101 20.5914 208.874 22.8614 207.73 24.5087C206.252 26.5265 203.979 26.4004 202.388 24.887C201.245 23.7441 198.517 20.7175 193.736 20.7175C189.418 20.7175 186.455 23.2397 186.455 26.6526C186.455 28.9226 188.736 30.8222 195.221 33.5966C203.411 37.0095 210.465 40.8007 210.465 49.5103C210.465 56.4622 206.139 63.6585 196.13 63.6585Z" fill="white"/>
<path d="M239.929 57.8495C239.929 60.3796 238.111 62.3974 235.724 62.3974C233.444 62.3974 231.626 60.3796 231.626 57.8495V22.6092H222.412C220.132 22.6092 218.2 20.4653 218.2 17.8091C218.2 15.2869 220.132 13.2612 222.412 13.2612H235.724C238.225 13.2612 239.929 15.2869 239.929 17.8091V57.8495Z" fill="white"/>
<path d="M253.241 17.8091C253.241 20.4653 251.422 22.6092 249.149 22.6092C246.756 22.6092 244.823 20.4653 244.823 17.8091C244.823 15.2869 246.756 13.2612 249.149 13.2612C251.422 13.2612 253.241 15.2869 253.241 17.8091Z" fill="#316BFF"/>
</svg>
