<svg width="1080" height="216" viewBox="0 0 1080 216" fill="none" xmlns="http://www.w3.org/2000/svg">
<path d="M94.1256 127.325V185.034C94.1256 194.748 86.3785 202.495 76.6645 202.495C66.4964 202.495 58.2652 194.748 58.2652 185.034L58.7494 127.809L3.97523 41.0175C-1.38113 32.7559 1.07008 21.6196 9.30133 16.2632C18.0168 11.4213 28.6992 13.8422 34.0254 22.1037L76.1803 89.0129L89.7679 67.6783C95.094 59.447 106.23 57.026 114.492 61.868C122.723 67.1941 125.144 78.3607 119.818 87.0762L94.1256 127.325Z" fill="white"/>
<path d="M151.321 31.3034C151.321 41.5016 143.574 49.7329 133.86 49.7329C123.692 49.7329 115.945 41.5016 115.945 31.3034C115.945 21.6195 123.692 13.8422 133.86 13.8422C143.574 13.8422 151.321 21.6195 151.321 31.3034Z" fill="#316BFF"/>
<path d="M251.155 164.183C261.353 169.994 272.005 172.899 285.079 174.382C298.182 175.834 303.508 182.129 303.508 190.36C303.508 199.59 297.698 207.337 280.721 207.337C267.163 207.337 253.576 204.432 239.534 198.621C205.611 182.613 181.855 148.175 181.855 108.411C181.855 53.1219 225.947 9 280.721 9C299.15 9 324.359 12.3893 344.725 28.8821C352.472 35.1766 352.956 45.8591 347.146 54.0903C342.274 61.3834 332.59 61.8676 322.422 56.5415C311.739 50.2168 297.698 44.8907 280.721 44.8907C245.829 44.8907 217.715 73.004 217.715 108.411C217.715 132.65 230.819 153.017 251.155 164.183Z" fill="white"/>
<path d="M318.064 171.446C318.064 161.762 326.295 154.015 335.979 154.015C345.693 154.015 353.925 161.762 353.925 171.446C353.925 181.644 345.693 189.875 335.979 189.875C326.295 189.875 318.064 181.644 318.064 171.446Z" fill="#316BFF"/>
<path d="M447.464 49.7329V185.034C447.464 194.748 439.233 202.495 429.065 202.495C419.351 202.495 411.604 194.748 411.604 185.034V31.3034C411.604 21.6195 419.351 13.8422 429.065 13.8422H519.699C529.383 13.8422 537.13 21.6195 537.13 31.3034C537.13 41.5016 529.383 49.7329 519.699 49.7329H447.464Z" fill="white"/>
<path d="M482.84 94.8232C493.039 94.8232 500.786 102.601 500.786 112.769C500.786 122.483 493.039 130.714 482.84 130.714C473.157 130.714 464.925 122.483 464.925 112.769C464.925 102.601 473.157 94.8232 482.84 94.8232Z" fill="#316BFF"/>
<path d="M595.294 202.495C585.126 202.495 577.379 194.748 577.379 185.034V31.3034C577.379 21.6195 585.126 13.8422 595.294 13.8422H632.153C641.837 13.8422 650.068 21.6195 650.068 31.3034C650.068 41.5016 641.837 49.7329 632.153 49.7329H613.239V90.9497H675.761C685.444 90.9497 693.706 98.2428 693.706 108.411C693.706 118.125 685.444 125.388 675.761 125.388H613.239V166.605H686.927C696.611 166.605 704.358 174.866 704.358 185.034C704.358 194.748 696.611 202.495 686.927 202.495H595.294Z" fill="white"/>
<path d="M685.928 49.7329C675.76 49.7329 668.013 41.5016 668.013 31.3034C668.013 21.6195 675.76 13.8422 685.928 13.8422C695.642 13.8422 703.874 21.6195 703.874 31.3034C703.874 41.5016 695.642 49.7329 685.928 49.7329Z" fill="#316BFF"/>
<path d="M792.087 164.668C792.087 174.866 784.34 182.613 774.172 182.613C764.458 182.613 756.227 174.866 756.227 164.668C756.227 154.5 764.458 146.722 774.172 146.722C784.34 146.722 792.087 154.5 792.087 164.668Z" fill="#316BFF"/>
<path d="M836.694 207.337C822.622 207.337 803.738 202.011 803.738 188.423C803.738 177.287 811.001 170.962 820.201 171.446C829.401 171.93 839.115 175.35 848.798 170.478C856.546 167.088 861.902 160.31 861.902 151.08C861.902 139.459 849.283 132.166 822.138 121.998C796.929 113.252 760.101 102.116 759.616 65.257C759.616 51.1852 764.943 38.112 775.141 27.9137C783.856 19.1983 799.35 9 827.464 9C858.997 9 879.817 25.4928 887.08 35.6608C891.952 41.9855 890.984 50.701 886.111 57.0257C879.817 64.7728 870.133 64.2886 863.354 58.4783C858.482 54.0903 846.862 42.4697 826.495 42.4697C808.096 42.4697 795.477 52.1536 795.477 65.257C795.477 73.9724 805.191 81.2656 832.82 91.9178C867.712 105.021 897.762 119.577 897.762 153.017C897.762 179.708 879.333 207.337 836.694 207.337Z" fill="white"/>
<path d="M1023.29 185.034C1023.29 194.748 1015.54 202.495 1005.37 202.495C995.659 202.495 987.912 194.748 987.912 185.034V49.7329H948.663C938.949 49.7329 930.717 41.5016 930.717 31.3034C930.717 21.6195 938.949 13.8422 948.663 13.8422H1005.37C1016.03 13.8422 1023.29 21.6195 1023.29 31.3034V185.034Z" fill="white"/>
<path d="M1080 31.3034C1080 41.5016 1072.25 49.7329 1062.57 49.7329C1052.37 49.7329 1044.14 41.5016 1044.14 31.3034C1044.14 21.6195 1052.37 13.8422 1062.57 13.8422C1072.25 13.8422 1080 21.6195 1080 31.3034Z" fill="#316BFF"/>
</svg>
