<svg width="170" height="40" viewBox="0 0 170 40" fill="none" xmlns="http://www.w3.org/2000/svg">
<path d="M15.535 22.7459V31.7659C15.535 33.2842 14.3241 34.4951 12.8058 34.4951C11.2165 34.4951 9.93 33.2842 9.93 31.7659L10.0057 22.8216L1.4445 9.25615C0.6073 7.96487 0.990425 6.22426 2.27697 5.38706C3.63919 4.63027 5.30886 5.00866 6.14132 6.29994L12.7301 16.7578L14.8539 13.4232C15.6863 12.1367 17.427 11.7583 18.7182 12.5151C20.0048 13.3475 20.3832 15.0929 19.5507 16.4551L15.535 22.7459Z" fill="#316BFF"/>
<path d="M27.5293 7.72917C27.5293 9.32316 26.3184 10.6097 24.8001 10.6097C23.2109 10.6097 22 9.32316 22 7.72917C22 6.21559 23.2109 5 24.8001 5C26.3184 5 27.5293 6.21559 27.5293 7.72917Z" fill="#316BFF"/>
<path d="M40.8316 28.2551C42.4255 29.1633 44.0905 29.6173 46.1338 29.8491C48.1819 30.0761 49.0143 31.06 49.0143 32.3465C49.0143 33.7891 48.1062 35 45.4527 35C43.3337 35 41.2099 34.5459 39.0153 33.6378C33.713 31.1356 30 25.753 30 19.5378C30 10.8962 36.8915 4 45.4527 4C48.3332 4 52.2733 4.52975 55.4565 7.10757C56.6674 8.09139 56.7431 9.76106 55.8349 11.0476C55.0734 12.1875 53.5598 12.2632 51.9705 11.4307C50.3009 10.4422 48.1062 9.6097 45.4527 9.6097C39.9991 9.6097 35.605 14.0038 35.605 19.5378C35.605 23.3265 37.653 26.5098 40.8316 28.2551Z" fill="#316BFF"/>
<path d="M50.5366 29.3902C50.5366 27.8766 51.8232 26.6658 53.3367 26.6658C54.8551 26.6658 56.1416 27.8766 56.1416 29.3902C56.1416 30.9842 54.8551 32.2707 53.3367 32.2707C51.8232 32.2707 50.5366 30.9842 50.5366 29.3902Z" fill="#316BFF"/>
<path d="M70.7612 10.3665V31.5141C70.7612 33.0324 69.4747 34.2433 67.8854 34.2433C66.3671 34.2433 65.1562 33.0324 65.1562 31.5141V7.48601C65.1562 5.97243 66.3671 4.75684 67.8854 4.75684H82.0516C83.5652 4.75684 84.776 5.97243 84.776 7.48601C84.776 9.08 83.5652 10.3665 82.0516 10.3665H70.7612Z" fill="#316BFF"/>
<path d="M76.2908 17.4142C77.8848 17.4142 79.0957 18.6298 79.0957 20.219C79.0957 21.7373 77.8848 23.0239 76.2908 23.0239C74.7773 23.0239 73.4907 21.7373 73.4907 20.219C73.4907 18.6298 74.7773 17.4142 76.2908 17.4142Z" fill="#316BFF"/>
<path d="M93.8675 34.2433C92.2782 34.2433 91.0674 33.0324 91.0674 31.5141V7.48601C91.0674 5.97243 92.2782 4.75684 93.8675 4.75684H99.6286C101.142 4.75684 102.429 5.97243 102.429 7.48601C102.429 9.08 101.142 10.3665 99.6286 10.3665H96.6724V16.8087H106.444C107.958 16.8087 109.249 17.9486 109.249 19.5379C109.249 21.0562 107.958 22.1914 106.444 22.1914H96.6724V28.6336H108.19C109.703 28.6336 110.914 29.9248 110.914 31.5141C110.914 33.0324 109.703 34.2433 108.19 34.2433H93.8675Z" fill="#316BFF"/>
<path d="M108.034 10.3665C106.444 10.3665 105.233 9.08 105.233 7.48601C105.233 5.97243 106.444 4.75684 108.034 4.75684C109.552 4.75684 110.838 5.97243 110.838 7.48601C110.838 9.08 109.552 10.3665 108.034 10.3665Z" fill="#316BFF"/>
<path d="M124.626 28.3307C124.626 29.9247 123.416 31.1356 121.826 31.1356C120.308 31.1356 119.021 29.9247 119.021 28.3307C119.021 26.7415 120.308 25.5259 121.826 25.5259C123.416 25.5259 124.626 26.7415 124.626 28.3307Z" fill="#316BFF"/>
<path d="M131.598 35C129.399 35 126.448 34.1675 126.448 32.0438C126.448 30.3032 127.583 29.3146 129.021 29.3903C130.459 29.466 131.977 30.0005 133.49 29.2389C134.701 28.7092 135.538 27.6497 135.538 26.207C135.538 24.3908 133.566 23.2508 129.323 21.6616C125.383 20.2946 119.627 18.554 119.551 12.793C119.551 10.5935 120.384 8.5502 121.978 6.95621C123.34 5.59399 125.762 4 130.156 4C135.084 4 138.339 6.57782 139.474 8.16707C140.235 9.15563 140.084 10.5179 139.322 11.5064C138.339 12.7173 136.825 12.6416 135.765 11.7334C135.004 11.0476 133.188 9.23131 130.004 9.23131C127.129 9.23131 125.156 10.7449 125.156 12.793C125.156 14.1552 126.675 15.2951 130.993 16.96C136.447 19.0081 141.143 21.2832 141.143 26.5098C141.143 30.6816 138.263 35 131.598 35Z" fill="#316BFF"/>
<path d="M160.763 31.5141C160.763 33.0324 159.552 34.2433 157.963 34.2433C156.445 34.2433 155.234 33.0324 155.234 31.5141V10.3665H149.099C147.581 10.3665 146.294 9.08 146.294 7.48601C146.294 5.97243 147.581 4.75684 149.099 4.75684H157.963C159.628 4.75684 160.763 5.97243 160.763 7.48601V31.5141Z" fill="#316BFF"/>
<path d="M169.627 7.48601C169.627 9.08 168.416 10.3665 166.903 10.3665C165.309 10.3665 164.022 9.08 164.022 7.48601C164.022 5.97243 165.309 4.75684 166.903 4.75684C168.416 4.75684 169.627 5.97243 169.627 7.48601Z" fill="#316BFF"/>
</svg>
