<svg width="1080" height="1080" viewBox="0 0 1080 1080" fill="none" xmlns="http://www.w3.org/2000/svg">
<path d="M487.784 541.721V548.414C487.784 549.54 486.886 550.439 485.759 550.439C484.58 550.439 483.625 549.54 483.625 548.414L483.682 541.778L477.33 531.713C476.709 530.755 476.993 529.463 477.947 528.842C478.958 528.281 480.197 528.562 480.815 529.52L485.703 537.279L487.279 534.805C487.896 533.85 489.188 533.569 490.146 534.131C491.1 534.748 491.381 536.043 490.763 537.054L487.784 541.721Z" fill="white"/>
<path d="M494.417 530.586C494.417 531.769 493.518 532.724 492.392 532.724C491.213 532.724 490.314 531.769 490.314 530.586C490.314 529.463 491.213 528.562 492.392 528.562C493.518 528.562 494.417 529.463 494.417 530.586Z" fill="#316BFF"/>
<path d="M505.994 545.996C507.176 546.67 508.412 547.006 509.928 547.178C511.447 547.347 512.065 548.077 512.065 549.031C512.065 550.102 511.391 551 509.422 551C507.85 551 506.275 550.663 504.646 549.989C500.712 548.133 497.958 544.139 497.958 539.528C497.958 533.117 503.071 528 509.422 528C511.56 528 514.483 528.393 516.845 530.306C517.743 531.036 517.799 532.274 517.125 533.229C516.56 534.075 515.437 534.131 514.258 533.513C513.019 532.78 511.391 532.162 509.422 532.162C505.376 532.162 502.116 535.422 502.116 539.528C502.116 542.339 503.636 544.701 505.994 545.996Z" fill="white"/>
<path d="M513.753 546.838C513.753 545.715 514.707 544.817 515.83 544.817C516.957 544.817 517.911 545.715 517.911 546.838C517.911 548.021 516.957 548.975 515.83 548.975C514.707 548.975 513.753 548.021 513.753 546.838Z" fill="#316BFF"/>
<path d="M528.759 532.724V548.414C528.759 549.54 527.804 550.439 526.625 550.439C525.498 550.439 524.6 549.54 524.6 548.414V530.586C524.6 529.463 525.498 528.562 526.625 528.562H537.135C538.258 528.562 539.157 529.463 539.157 530.586C539.157 531.769 538.258 532.724 537.135 532.724H528.759Z" fill="white"/>
<path d="M532.861 537.952C534.044 537.952 534.942 538.854 534.942 540.033C534.942 541.16 534.044 542.114 532.861 542.114C531.738 542.114 530.784 541.16 530.784 540.033C530.784 538.854 531.738 537.952 532.861 537.952Z" fill="#316BFF"/>
<path d="M545.902 550.439C544.723 550.439 543.824 549.54 543.824 548.414V530.586C543.824 529.463 544.723 528.562 545.902 528.562H550.176C551.299 528.562 552.254 529.463 552.254 530.586C552.254 531.769 551.299 532.724 550.176 532.724H547.983V537.503H555.233C556.356 537.503 557.314 538.349 557.314 539.528C557.314 540.655 556.356 541.497 555.233 541.497H547.983V546.277H556.528C557.651 546.277 558.549 547.235 558.549 548.414C558.549 549.54 557.651 550.439 556.528 550.439H545.902Z" fill="white"/>
<path d="M556.412 532.724C555.233 532.724 554.334 531.769 554.334 530.586C554.334 529.463 555.233 528.562 556.412 528.562C557.538 528.562 558.493 529.463 558.493 530.586C558.493 531.769 557.538 532.724 556.412 532.724Z" fill="#316BFF"/>
<path d="M568.723 546.052C568.723 547.235 567.825 548.133 566.645 548.133C565.519 548.133 564.564 547.235 564.564 546.052C564.564 544.873 565.519 543.971 566.645 543.971C567.825 543.971 568.723 544.873 568.723 546.052Z" fill="#316BFF"/>
<path d="M573.896 551C572.264 551 570.074 550.382 570.074 548.807C570.074 547.515 570.916 546.782 571.983 546.838C573.05 546.894 574.176 547.291 575.299 546.726C576.198 546.333 576.819 545.547 576.819 544.476C576.819 543.129 575.356 542.283 572.208 541.104C569.284 540.09 565.014 538.798 564.958 534.524C564.958 532.892 565.575 531.376 566.758 530.193C567.768 529.183 569.565 528 572.825 528C576.482 528 578.896 529.913 579.739 531.092C580.304 531.825 580.191 532.836 579.626 533.569C578.896 534.468 577.774 534.412 576.987 533.738C576.422 533.229 575.075 531.881 572.713 531.881C570.579 531.881 569.116 533.004 569.116 534.524C569.116 535.534 570.243 536.38 573.447 537.616C577.493 539.135 580.978 540.823 580.978 544.701C580.978 547.796 578.84 551 573.896 551Z" fill="white"/>
<path d="M595.534 548.414C595.534 549.54 594.635 550.439 593.456 550.439C592.33 550.439 591.431 549.54 591.431 548.414V532.724H586.88C585.753 532.724 584.799 531.769 584.799 530.586C584.799 529.463 585.753 528.562 586.88 528.562H593.456C594.692 528.562 595.534 529.463 595.534 530.586V548.414Z" fill="white"/>
<path d="M602.11 530.586C602.11 531.769 601.212 532.724 600.089 532.724C598.906 532.724 597.952 531.769 597.952 530.586C597.952 529.463 598.906 528.562 600.089 528.562C601.212 528.562 602.11 529.463 602.11 530.586Z" fill="#316BFF"/>
</svg>
