<svg width="31" height="32" viewBox="0 0 31 32" fill="none" xmlns="http://www.w3.org/2000/svg">
<path d="M8.50192 17.6753V22.3308C8.50192 23.1144 7.87696 23.7394 7.09332 23.7394C6.27306 23.7394 5.60903 23.1144 5.60903 22.3308L5.64809 17.7144L1.22942 10.7128C0.797316 10.0464 0.995058 9.14799 1.65908 8.71589C2.36216 8.32529 3.22393 8.52059 3.65359 9.18705L7.05426 14.5847L8.15038 12.8636C8.58004 12.1996 9.47843 12.0043 10.1449 12.3949C10.8089 12.8245 11.0042 13.7253 10.5746 14.4284L8.50192 17.6753Z" fill="#316BFF"/>
<path d="M14.6927 9.92472C14.6927 10.7474 14.0677 11.4114 13.2841 11.4114C12.4638 11.4114 11.8389 10.7474 11.8389 9.92472C11.8389 9.14352 12.4638 8.51611 13.2841 8.51611C14.0677 8.51611 14.6927 9.14352 14.6927 9.92472Z" fill="#316BFF"/>
<path d="M21.5583 20.5188C22.381 20.9875 23.2403 21.2218 24.2949 21.3415C25.352 21.4587 25.7816 21.9664 25.7816 22.6305C25.7816 23.375 25.3129 24 23.9434 24C22.8497 24 21.7536 23.7656 20.6208 23.2969C17.8842 22.0055 15.9678 19.2273 15.9678 16.0195C15.9678 11.5594 19.5247 8 23.9434 8C25.4301 8 27.4637 8.27342 29.1066 9.60391C29.7316 10.1117 29.7706 10.9735 29.3019 11.6375C28.9089 12.2258 28.1277 12.2649 27.3074 11.8352C26.4456 11.325 25.3129 10.8953 23.9434 10.8953C21.1286 10.8953 18.8607 13.1633 18.8607 16.0195C18.8607 17.975 19.9177 19.6179 21.5583 20.5188Z" fill="#316BFF"/>
<path d="M26.5674 21.1047C26.5674 20.3234 27.2314 19.6985 28.0126 19.6985C28.7963 19.6985 29.4603 20.3234 29.4603 21.1047C29.4603 21.9274 28.7963 22.5914 28.0126 22.5914C27.2314 22.5914 26.5674 21.9274 26.5674 21.1047Z" fill="#316BFF"/>
</svg>
